<?xml version="1.0" encoding="UTF-8"?>
<!DOCTYPE svg PUBLIC "-//W3C//DTD SVG 1.1//EN" "http://www.w3.org/Graphics/SVG/1.1/DTD/svg11.dtd">
<!-- Creator: CorelDRAW X6 -->
<svg xmlns="http://www.w3.org/2000/svg" xml:space="preserve" width="2480px" height="3508px" version="1.1" style="shape-rendering:geometricPrecision; text-rendering:geometricPrecision; image-rendering:optimizeQuality; fill-rule:evenodd; clip-rule:evenodd"
viewBox="0 0 2480 3507"
 xmlns:xlink="http://www.w3.org/1999/xlink">
 <defs>
  <style type="text/css">
   <![CDATA[
    .fil2 {fill:#83786B}
    .fil4 {fill:#84716B}
    .fil5 {fill:#94887A}
    .fil6 {fill:#957B7A}
    .fil3 {fill:#A38E8D}
    .fil1 {fill:#B2AD9F}
    .fil0 {fill:#CFD4C8}
   ]]>
  </style>
 </defs>
 <g id="Capa_x0020_1">
  <metadata id="CorelCorpID_0Corel-Layer"/>
  <circle class="fil0" cx="752" cy="998" r="8"/>
  <path class="fil1" d="M756 1005c-1,1 -2,1 -4,1 -1,0 -2,0 -3,-1l0 -7c-1,-1 -1,-1 -1,-2 0,-1 0,-2 1,-2l0 0c0,0 0,0 0,0 0,-1 1,-2 2,-2 1,0 1,0 1,1 1,-1 1,-1 2,-1 1,0 1,1 1,2 0,0 0,0 0,0 1,0 2,1 2,2 0,1 0,1 -1,2l0 7z"/>
  <path class="fil2" d="M756 1005c-1,1 -2,1 -3,1 0,0 0,-1 0,-1 0,-2 1,-3 2,-3 0,0 1,0 1,1l0 2z"/>
  <path class="fil3" d="M749 1004l0 -4c0,0 0,0 0,0 1,0 2,1 2,2 0,1 -1,2 -2,2 0,0 0,0 0,0z"/>
  <path class="fil4" d="M752 996c1,0 2,1 2,2 0,1 -1,1 -2,1 0,0 -1,0 -1,0 -1,-1 -1,-1 0,-2 0,0 0,-1 1,-1z"/>
  <circle class="fil5" cx="751" cy="994" r="1"/>
  <circle class="fil3" cx="753" cy="994" r="1"/>
  <circle class="fil6" cx="755" cy="996" r="1"/>
  <circle class="fil5" cx="750" cy="996" r="1"/>
 </g>
</svg>
