<?xml version="1.0" encoding="UTF-8"?>
<!DOCTYPE svg PUBLIC "-//W3C//DTD SVG 1.1//EN" "http://www.w3.org/Graphics/SVG/1.1/DTD/svg11.dtd">
<svg xmlns="http://www.w3.org/2000/svg" xml:space="preserve" width="2480px" height="3508px" version="1.1" style="shape-rendering:geometricPrecision; text-rendering:geometricPrecision; image-rendering:optimizeQuality; fill-rule:evenodd; clip-rule:evenodd"
viewBox="0 0 2480 3507"
 xmlns:xlink="http://www.w3.org/1999/xlink">
 <defs>
  <style type="text/css">
   <![CDATA[
    .fil2 {fill:#83786B}
    .fil4 {fill:#84716B}
    .fil5 {fill:#94887A}
    .fil6 {fill:#957B7A}
    .fil3 {fill:#A38E8D}
    .fil1 {fill:#B2AD9F}
    .fil0 {fill:#CFD4C8}
   ]]>
  </style>
 </defs>
 <g id="Capa_x0020_1">
  <metadata id="CorelCorpID_0Corel-Layer"/>
  <circle class="fil0" cx="752" cy="998" r="70"/>
  <path class="fil1" d="M784 1060c-9,5 -20,8 -32,8 -11,0 -22,-3 -31,-8l0 -65c-5,-2 -8,-8 -8,-14 0,-10 6,-17 15,-17l0 0c0,0 0,-1 0,-1 0,-9 7,-17 15,-17 4,0 7,2 10,4 3,-3 7,-5 11,-5 9,0 16,7 16,16 0,1 0,1 0,2 8,0 14,7 14,16 0,7 -4,13 -10,16l0 65z"/>
  <path class="fil2" d="M784 1060c-7,4 -15,6 -24,7 -2,-3 -3,-7 -3,-12 0,-12 8,-22 17,-22 4,0 8,2 10,5l0 22z"/>
  <path class="fil3" d="M721 1046l0 -29c2,-2 5,-2 7,-2 9,0 16,7 16,16 0,9 -7,17 -16,17 -2,0 -5,-1 -7,-2z"/>
  <path class="fil4" d="M754 978c9,0 17,15 17,22 0,7 -9,6 -18,6 -4,0 -13,0 -16,-3 -2,-2 -1,-10 2,-12 5,-6 7,-13 15,-13z"/>
  <circle class="fil5" cx="745" cy="966" r="7"/>
  <circle class="fil3" cx="761" cy="966" r="7"/>
  <circle class="fil6" cx="776" cy="981" r="7"/>
  <circle class="fil5" cx="731" cy="980" r="7"/>
 </g>
</svg>
